<svg id="b09e7a10-f832-4734-ae2c-f4cec41d4c9c" data-name="Warstwa 1" xmlns="http://www.w3.org/2000/svg" xmlns:xlink="http://www.w3.org/1999/xlink" viewBox="0 0 2080.59 1995.4"><defs><style>.f2e34a3d-ceda-4237-ba70-fb62dc9e84a9{fill:url(#b3ffb0e6-9a41-47fa-85a8-53877699412d);}.afdfba56-6454-45b1-8431-531f0da07066{fill:#007386;}.ac85a05e-4896-4f42-9194-33a100e68174{fill:#1a8592;}.a360b8f7-754e-49bd-9eee-4b19706dd6cc{fill:#116471;}.a2321ebf-cdab-48d5-99cc-83c48679cedc{fill:#0e5b6d;}.ae6402fc-304a-457e-a9d1-382bb81ae18b{fill:#07485b;}.ee3f2ac7-44b6-4db5-a981-9e2775d9d5f2{fill:#03596a;}.e1adfe3f-96e2-43fa-95c6-fd4f0db41a47{fill:#064f69;}.b61ef052-4ba1-4edd-a7c1-ebf772978713{stroke:#fff;stroke-miterlimit:10;}.bc354642-531f-4414-b093-fad3ee797074{fill:url(#b206cb9e-9c76-45fb-b95e-e94269f4dadf);}</style><linearGradient id="b3ffb0e6-9a41-47fa-85a8-53877699412d" x1="1008.09" y1="787.85" x2="1864.03" y2="787.85" gradientUnits="userSpaceOnUse"><stop offset="0" stop-color="#098fa7"/><stop offset="1" stop-color="#21a5a7"/></linearGradient><linearGradient id="b206cb9e-9c76-45fb-b95e-e94269f4dadf" x1="423.77" y1="2107.66" x2="2503.36" y2="2107.66" gradientUnits="userSpaceOnUse"><stop offset="0" stop-color="#229aa7"/><stop offset="1" stop-color="#116471"/></linearGradient></defs><path class="f2e34a3d-ceda-4237-ba70-fb62dc9e84a9" d="M1864,682.08a426,426,0,0,1-88,260l-.12.16L1757,965.17l-.07.07-271.1,329.28-9.25,11.24a58,58,0,0,1-82.54-2.87L1390,1298l-131-159.06L1411.7,943.84a245.16,245.16,0,0,0,33.83,2.34c135.27,0,244.92-110.6,244.92-247a248.41,248.41,0,0,0-12.34-77.61,235.91,235.91,0,0,0-12.69-37.14A230.76,230.76,0,0,1,1676,653.68c0-.64,0-1.29,0-1.93a227.54,227.54,0,0,0-12.26-71.2,224.1,224.1,0,0,0-9.7-23.82l-1.68,2-13,15.8-3.47,4.21-60.08,73-9.79,11.9-28.16,34.21h0l-11.38,13.82,0,0c-1,1-2,1.93-3,2.87-1.48.8-3,1.55-4.54,2.27-.7.32-1.41.65-2.13,1s-1.57.68-2.38,1c-.58.24-1.18.47-1.77.7l-.7.27c-.7.27-1.41.52-2.14.77l-.12,0c-.63.22-1.27.44-1.9.64l-.86.28h0c-.69.21-1.38.43-2.08.63s-1.36.38-2,.56c-.32.1-.66.18-1,.27l-1.38.35-.86.2c-.58.13-1.17.27-1.76.39l-1.16.24-1.63.32-1.54.27c-.5.09-1,.18-1.53.25l-.31,0c-.66.11-1.31.2-2,.28-.28,0-.57.08-.85.11-.61.08-1.24.16-1.87.22h0c-.86.09-1.73.17-2.6.24h0c-47.42-3.66-84.63-39.13-84.63-82.37a76.13,76.13,0,0,1,15.63-45.95c1.46-1.94,3-3.81,4.62-5.62l119.38-145.3a186.7,186.7,0,0,0-41.82-14.9l.07-.07-.14,0c.07-.1.14-.2.2-.3,4.5,1.16,9,2.46,13.32,3.93l1.71.58c-.56-.21-1.12-.4-1.7-.59a189.76,189.76,0,0,0-89.61-7.55,226.81,226.81,0,0,0-79.8,24.6,228.37,228.37,0,0,0-122.27,199.41c0,1,0,1.94,0,2.9a227.69,227.69,0,0,0,19.2,91.78h0l0,0-31.9,38.75-86.76,105.37L1087.2,930a426,426,0,0,1-79.11-248q0-15.29,1.07-30.33a425.4,425.4,0,0,1,24.29-115.14C1093,371.85,1250.77,254.1,1436.06,254.1s343.08,117.75,402.61,282.51A425,425,0,0,1,1863,651.75Q1864,666.78,1864,682.08Z" transform="translate(-423.27 -254.1)"/><path class="afdfba56-6454-45b1-8431-531f0da07066" d="M1492.35,726.23a103.06,103.06,0,0,0,18.58-1.67,99.69,99.69,0,0,1-47.87,16.78c-2.71.22-5.45.34-8.2.34A100.41,100.41,0,0,1,1355,651.75c0-.23,0-.46-.07-.69-.31-3.22-.48-6.49-.48-9.79A99.93,99.93,0,0,1,1374.58,581l5.58-6.76,31-37.61,78-94.76,8.28-10.08a186.7,186.7,0,0,1,41.82,14.9L1419.85,592c-1.63,1.81-3.16,3.68-4.62,5.62a76.13,76.13,0,0,0-15.63,45.95c0,43.24,37.21,78.71,84.63,82.37h0C1486.92,726.13,1489.62,726.23,1492.35,726.23Z" transform="translate(-423.27 -254.1)"/><path class="afdfba56-6454-45b1-8431-531f0da07066" d="M1523.43,714.6a100.94,100.94,0,0,1-12.5,10,103.06,103.06,0,0,1-18.58,1.67c-2.73,0-5.43-.1-8.09-.32.87-.07,1.74-.15,2.6-.24h0c.63-.06,1.26-.14,1.87-.22.28,0,.57-.06.85-.11.66-.08,1.31-.17,2-.28l.31,0c.52-.07,1-.16,1.53-.25s1-.17,1.54-.27l1.63-.32,1.16-.24c.59-.12,1.18-.26,1.76-.39l.86-.2,1.38-.35c.33-.09.67-.17,1-.27.69-.18,1.37-.36,2-.56s1.39-.42,2.08-.63h0l.86-.28c.63-.2,1.27-.42,1.9-.64l.12,0c.73-.25,1.44-.5,2.14-.77l.7-.27c.59-.23,1.19-.46,1.77-.7.81-.32,1.6-.65,2.38-1s1.43-.64,2.13-1C1520.43,716.15,1522,715.4,1523.43,714.6Z" transform="translate(-423.27 -254.1)"/><path class="afdfba56-6454-45b1-8431-531f0da07066" d="M1690.45,699.14c0,136.44-109.65,247-244.92,247a245.16,245.16,0,0,1-33.83-2.34L1259,1138.89l-20.43-24.83-1.14-1.38-20.59-25,21.4-26,32-38.85,91.5-111.13,29-35.28a225.33,225.33,0,0,0,37.35,6.33q9.55.81,19.33.81a227.23,227.23,0,0,0,167.29-73.29q1.88-2,3.69-4.07A227.5,227.5,0,0,0,1676,654.65v-1a230.76,230.76,0,0,0-10.56-69.29,235.91,235.91,0,0,1,12.69,37.14A248.41,248.41,0,0,1,1690.45,699.14Z" transform="translate(-423.27 -254.1)"/><path class="afdfba56-6454-45b1-8431-531f0da07066" d="M1512.57,435.88l-1.71-.58h0C1511.45,435.48,1512,435.67,1512.57,435.88Z" transform="translate(-423.27 -254.1)"/><path class="ac85a05e-4896-4f42-9194-33a100e68174" d="M1912.21,1837.29H972.41a110.86,110.86,0,0,1,110-97.18h108.52l.16-.55h499.37l.16.55H1802.2A110.88,110.88,0,0,1,1912.21,1837.29Z" transform="translate(-423.27 -254.1)"/><path class="a360b8f7-754e-49bd-9eee-4b19706dd6cc" d="M2367.91,571V1512.4a77.55,77.55,0,0,1-10.75,39.47H651.83c-40.8,0-74-28.55-75.29-64.27,0-.74-.06-1.48-.06-2.23V494.9a77.68,77.68,0,0,1,16.17-1.69H986a474.37,474.37,0,0,0-27.12,128.52H643.43v839.9h1596V621.73H1911.83a474.36,474.36,0,0,0-27.11-128.52h405.46A77.73,77.73,0,0,1,2367.91,571Z" transform="translate(-423.27 -254.1)"/><polygon class="a2321ebf-cdab-48d5-99cc-83c48679cedc" points="1267.2 1485.46 767.83 1485.46 796.6 1387.02 1238.44 1387.02 1267.2 1485.46"/><polygon class="ae6402fc-304a-457e-a9d1-382bb81ae18b" points="1238.44 1387.02 796.6 1387.02 811.49 1336.04 1223.54 1336.04 1238.44 1387.02"/><path class="ee3f2ac7-44b6-4db5-a981-9e2775d9d5f2" d="M1913,1845.51v37.8H971.56v-36.26a56.4,56.4,0,0,1,.85-9.76h939.8A56.11,56.11,0,0,1,1913,1845.51Z" transform="translate(-423.27 -254.1)"/><path class="e1adfe3f-96e2-43fa-95c6-fd4f0db41a47" d="M2357.16,1551.87a77.68,77.68,0,0,1-67,38.27H591.74a77.77,77.77,0,0,1-76-61.56c-.31-1.41-.57-2.84-.79-4.28V571a77.75,77.75,0,0,1,61.56-76.06v990.47c0,36.76,33.7,66.5,75.35,66.5Z" transform="translate(-423.27 -254.1)"/><path class="b61ef052-4ba1-4edd-a7c1-ebf772978713" d="M489.86,2142.42v100.85H423.77V2039.66c0-47,27.12-67.23,79.46-67.23h163.5v53.1H512c-15.28,0-22.15,9.93-22.15,22.54v42.4H661.38v52Z" transform="translate(-423.27 -254.1)"/><path class="b61ef052-4ba1-4edd-a7c1-ebf772978713" d="M704.54,2243.27V1972.43h65.32v270.84Z" transform="translate(-423.27 -254.1)"/><path class="b61ef052-4ba1-4edd-a7c1-ebf772978713" d="M1031.53,2243.27,955.13,2139l-77.55,104.29h-76.4l111.92-141L807.29,1972.43h81.37l70.67,95.5,72.2-95.5h75.25L1001,2101.17l111.92,142.1Z" transform="translate(-423.27 -254.1)"/><path class="b61ef052-4ba1-4edd-a7c1-ebf772978713" d="M1206.86,2165v78.31h-66.09V2055.71c0-58.07,31.71-83.28,92.83-83.28h92.06c71.82,0,94.74,31.71,94.74,94.36,0,62.26-22.92,98.17-98.94,98.17Zm37.82-140.19c-26.36,0-37.82,10.31-37.82,37.81v49.66h110c29.41,0,36.67-8.78,36.67-45.45,0-27.89-6.88-42-33.24-42Z" transform="translate(-423.27 -254.1)"/><path class="b61ef052-4ba1-4edd-a7c1-ebf772978713" d="M1449.05,2108c0-99.7,39.34-141.72,150.89-141.72,112.31,0,151.27,42,151.27,141.72s-39,141-151.27,141C1488.39,2249,1449.05,2207.75,1449.05,2108Zm150.89-89.77c-66.09,0-83.28,22.54-83.28,89.39s16.81,90.15,83.28,90.15,84-21.77,84-81C1684,2042.72,1670.61,2018.27,1599.94,2018.27Z" transform="translate(-423.27 -254.1)"/><path class="b61ef052-4ba1-4edd-a7c1-ebf772978713" d="M1796.66,2243.27V1972.43H1862v270.84Z" transform="translate(-423.27 -254.1)"/><path class="b61ef052-4ba1-4edd-a7c1-ebf772978713" d="M2177.89,2243.27,1976.2,2042v201.31h-62.65V1972.43h82.13l151.65,154.33V1972.43h63.42v270.84Z" transform="translate(-423.27 -254.1)"/><path class="b61ef052-4ba1-4edd-a7c1-ebf772978713" d="M2338.71,2243.27V2027.06H2239v-54.63h264.35v54.63H2404v216.21Z" transform="translate(-423.27 -254.1)"/><path class="bc354642-531f-4414-b093-fad3ee797074" d="M489.86,2142.42v100.85H423.77V2039.66c0-47,27.12-67.23,79.46-67.23h163.5v53.1H512c-15.28,0-22.15,9.93-22.15,22.54v42.4H661.38v52Z" transform="translate(-423.27 -254.1)"/><path class="bc354642-531f-4414-b093-fad3ee797074" d="M704.54,2243.27V1972.43h65.32v270.84Z" transform="translate(-423.27 -254.1)"/><path class="bc354642-531f-4414-b093-fad3ee797074" d="M1031.53,2243.27,955.13,2139l-77.55,104.29h-76.4l111.92-141L807.29,1972.43h81.37l70.67,95.5,72.2-95.5h75.25L1001,2101.17l111.92,142.1Z" transform="translate(-423.27 -254.1)"/><path class="bc354642-531f-4414-b093-fad3ee797074" d="M1206.86,2165v78.31h-66.09V2055.71c0-58.07,31.71-83.28,92.83-83.28h92.06c71.82,0,94.74,31.71,94.74,94.36,0,62.26-22.92,98.17-98.94,98.17Zm37.82-140.19c-26.36,0-37.82,10.31-37.82,37.81v49.66h110c29.41,0,36.67-8.78,36.67-45.45,0-27.89-6.88-42-33.24-42Z" transform="translate(-423.27 -254.1)"/><path class="bc354642-531f-4414-b093-fad3ee797074" d="M1449.05,2108c0-99.7,39.34-141.72,150.89-141.72,112.31,0,151.27,42,151.27,141.72s-39,141-151.27,141C1488.39,2249,1449.05,2207.75,1449.05,2108Zm150.89-89.77c-66.09,0-83.28,22.54-83.28,89.39s16.81,90.15,83.28,90.15,84-21.77,84-81C1684,2042.72,1670.61,2018.27,1599.94,2018.27Z" transform="translate(-423.27 -254.1)"/><path class="bc354642-531f-4414-b093-fad3ee797074" d="M1796.66,2243.27V1972.43H1862v270.84Z" transform="translate(-423.27 -254.1)"/><path class="bc354642-531f-4414-b093-fad3ee797074" d="M2177.89,2243.27,1976.2,2042v201.31h-62.65V1972.43h82.13l151.65,154.33V1972.43h63.42v270.84Z" transform="translate(-423.27 -254.1)"/><path class="bc354642-531f-4414-b093-fad3ee797074" d="M2338.71,2243.27V2027.06H2239v-54.63h264.35v54.63H2404v216.21Z" transform="translate(-423.27 -254.1)"/></svg>